<svg width="67" height="67" viewBox="0 0 67 67" fill="none" xmlns="http://www.w3.org/2000/svg">
<path d="M40.453 6.95283C40.453 10.7928 37.3401 30.3396 33.5002 30.3396C29.6603 30.3396 26.5474 10.7928 26.5474 6.95283C26.5474 3.11289 29.6603 0 33.5002 0C37.3401 0 40.453 3.11289 40.453 6.95283Z" fill="black"/>
<path d="M40.453 6.95283C40.453 10.7928 37.3401 30.3396 33.5002 30.3396C29.6603 30.3396 26.5474 10.7928 26.5474 6.95283C26.5474 3.11289 29.6603 0 33.5002 0C37.3401 0 40.453 3.11289 40.453 6.95283Z" fill="black"/>
<path d="M26.547 60.0472C26.547 56.2072 29.6599 36.6604 33.4998 36.6604C37.3397 36.6604 40.4526 56.2072 40.4526 60.0472C40.4526 63.8871 37.3397 67 33.4998 67C29.6599 67 26.547 63.8871 26.547 60.0472Z" fill="black"/>
<path d="M26.547 60.0472C26.547 56.2072 29.6599 36.6604 33.4998 36.6604C37.3397 36.6604 40.4526 56.2072 40.4526 60.0472C40.4526 63.8871 37.3397 67 33.4998 67C29.6599 67 26.547 63.8871 26.547 60.0472Z" fill="black"/>
<path d="M6.95283 26.5472C10.7928 26.5472 30.3396 29.66 30.3396 33.5C30.3396 37.3399 10.7928 40.4528 6.95283 40.4528C3.11289 40.4528 -1.36069e-07 37.3399 -3.03918e-07 33.5C-4.71767e-07 29.66 3.11289 26.5472 6.95283 26.5472Z" fill="black"/>
<path d="M6.95283 26.5472C10.7928 26.5472 30.3396 29.66 30.3396 33.5C30.3396 37.3399 10.7928 40.4528 6.95283 40.4528C3.11289 40.4528 -1.36069e-07 37.3399 -3.03918e-07 33.5C-4.71767e-07 29.66 3.11289 26.5472 6.95283 26.5472Z" fill="black"/>
<path d="M60.0472 40.4528C56.2072 40.4528 36.6604 37.34 36.6604 33.5C36.6604 29.6601 56.2072 26.5472 60.0472 26.5472C63.8871 26.5472 67 29.6601 67 33.5C67 37.34 63.8871 40.4528 60.0472 40.4528Z" fill="black"/>
<path d="M60.0472 40.4528C56.2072 40.4528 36.6604 37.34 36.6604 33.5C36.6604 29.6601 56.2072 26.5472 60.0472 26.5472C63.8871 26.5472 67 29.6601 67 33.5C67 37.34 63.8871 40.4528 60.0472 40.4528Z" fill="black"/>
<path d="M57.1879 19.6447C54.4726 22.3599 38.4498 33.9805 35.7345 31.2653C33.0193 28.55 44.6398 12.5272 47.3551 9.8119C50.0703 7.09665 54.4726 7.09665 57.1879 9.8119C59.9031 12.5272 59.9031 16.9294 57.1879 19.6447Z" fill="black"/>
<path d="M57.1879 19.6447C54.4726 22.3599 38.4498 33.9805 35.7345 31.2653C33.0193 28.55 44.6398 12.5272 47.3551 9.8119C50.0703 7.09665 54.4726 7.09665 57.1879 9.8119C59.9031 12.5272 59.9031 16.9294 57.1879 19.6447Z" fill="black"/>
<path d="M9.81212 47.3553C12.5274 44.6401 28.5502 33.0195 31.2655 35.7347C33.9807 38.45 22.3602 54.4728 19.6449 57.1881C16.9297 59.9033 12.5274 59.9033 9.81212 57.1881C7.09687 54.4728 7.09687 50.0706 9.81212 47.3553Z" fill="black"/>
<path d="M9.81212 47.3553C12.5274 44.6401 28.5502 33.0195 31.2655 35.7347C33.9807 38.45 22.3602 54.4728 19.6449 57.1881C16.9297 59.9033 12.5274 59.9033 9.81212 57.1881C7.09687 54.4728 7.09687 50.0706 9.81212 47.3553Z" fill="black"/>
<path d="M19.6447 9.81191C22.3599 12.5272 33.9805 28.55 31.2653 31.2653C28.55 33.9805 12.5272 22.3599 9.8119 19.6447C7.09665 16.9294 7.09665 12.5272 9.8119 9.81191C12.5272 7.09666 16.9294 7.09666 19.6447 9.81191Z" fill="black"/>
<path d="M19.6447 9.81191C22.3599 12.5272 33.9805 28.55 31.2653 31.2653C28.55 33.9805 12.5272 22.3599 9.8119 19.6447C7.09665 16.9294 7.09665 12.5272 9.8119 9.81191C12.5272 7.09666 16.9294 7.09666 19.6447 9.81191Z" fill="black"/>
<path d="M47.3558 57.1881C44.6406 54.4729 33.02 38.45 35.7352 35.7348C38.4505 33.0195 54.4733 44.6401 57.1886 47.3553C59.9038 50.0706 59.9038 54.4729 57.1886 57.1881C54.4733 59.9034 50.071 59.9034 47.3558 57.1881Z" fill="black"/>
<path d="M47.3558 57.1881C44.6406 54.4729 33.02 38.45 35.7352 35.7348C38.4505 33.0195 54.4733 44.6401 57.1886 47.3553C59.9038 50.0706 59.9038 54.4729 57.1886 57.1881C54.4733 59.9034 50.071 59.9034 47.3558 57.1881Z" fill="black"/>
<circle cx="33.5002" cy="33.4999" r="11.5094" fill="white" stroke="black"/>
<circle cx="33.5002" cy="33.5" r="8.21698" fill="black"/>
</svg>
